<svg width="24" height="22" viewBox="0 0 24 22" fill="none" xmlns="http://www.w3.org/2000/svg">
<path d="M5.19376 1.42105C7.94766 3.48648 10.9069 7.67772 11.994 9.92433C13.081 7.67772 16.0403 3.48648 18.7942 1.42105C20.775 -0.0646024 24 -1.22414 24 2.44773C24 6.1196 23.5773 8.60777 23.3357 9.4895C22.4781 12.5574 19.3619 13.3305 16.5838 12.8594C21.4394 13.6928 22.6714 16.4226 20.002 19.1644C14.9411 24.3581 12.7187 17.8599 12.151 16.1931C12.0423 15.8911 11.994 15.7462 11.994 15.867C11.994 15.7462 11.9456 15.8911 11.8369 16.1931C11.2693 17.8599 9.05888 24.3581 3.98591 19.1644C1.31656 16.4226 2.54857 13.6928 7.40413 12.8594C4.62607 13.3305 1.49774 12.5574 0.65224 9.4895C0.410669 8.60777 0 3.18452 0 2.44773C0 -1.22414 3.21288 -0.0646024 5.19376 1.42105Z" fill="white"/>
</svg>
