<svg width="23" height="24" viewBox="0 0 23 24" fill="none" xmlns="http://www.w3.org/2000/svg">
<path d="M22.3878 7.872C22.3878 2.664 18.9798 1.14 18.9798 1.14C17.2518 0.348 14.2998 0.012 11.2278 0H11.1558C8.08384 0.024 5.13184 0.36 3.41584 1.152C3.41584 1.152 0.00783674 2.676 0.00783674 7.884C0.00783674 13.092 -0.0161633 10.5 0.0198367 12.012C0.139837 17.1 0.955837 22.116 5.65984 23.364C7.83184 23.94 9.69184 24.06 11.1918 23.976C13.9158 23.82 15.4398 23.004 15.4398 23.004L15.3438 21.024C15.3438 21.024 13.3998 21.636 11.2158 21.564C9.05584 21.492 6.76384 21.324 6.41584 18.672C6.37984 18.42 6.36784 18.18 6.36784 17.928C6.36784 17.928 8.49184 18.444 11.1798 18.576C12.8238 18.648 14.3718 18.48 15.9438 18.288C18.9558 17.928 21.5718 16.08 21.8958 14.376C22.4238 11.712 22.3758 7.872 22.3758 7.872H22.3878ZM18.3558 14.58H15.8598V8.46C15.8598 7.176 15.3198 6.516 14.2278 6.516C13.1358 6.516 12.4278 7.296 12.4278 8.832V12.18H9.94384V8.832C9.94384 7.296 9.34384 6.516 8.14384 6.516C6.94384 6.516 6.51184 7.176 6.51184 8.46V14.58H4.01584V8.28C4.01584 6.996 4.33984 5.964 4.99984 5.208C5.68384 4.452 6.57184 4.068 7.67584 4.068C8.77984 4.068 9.91984 4.56 10.5678 5.544L11.1918 6.588L11.8158 5.544C12.4518 4.56 13.4238 4.068 14.7078 4.068C15.9918 4.068 16.6998 4.452 17.3838 5.208C18.0438 5.964 18.3678 6.996 18.3678 8.28V14.58H18.3558Z" fill="white"/>
</svg>
