<svg width="22" height="24" viewBox="0 0 22 24" fill="none" xmlns="http://www.w3.org/2000/svg">
<path d="M19.052 0C20.458 0 21.592 1.137 21.659 2.475V24L18.982 21.727L17.512 20.389L15.908 18.991L16.578 21.196H2.54C1.138 21.196 0 20.131 0 18.72V2.48C0 1.142 1.14 0.003 2.545 0.003H19.045L19.052 0ZM12.934 5.683H12.904L12.702 5.883C14.775 6.483 15.778 7.42 15.778 7.42C14.442 6.752 13.238 6.418 12.034 6.283C11.164 6.148 10.294 6.219 9.559 6.283H9.359C8.889 6.283 7.889 6.483 6.549 7.018C6.082 7.221 5.814 7.354 5.814 7.354C5.814 7.354 6.816 6.352 9.024 5.817L8.889 5.682C8.889 5.682 7.217 5.618 5.412 6.952C5.412 6.952 3.607 10.096 3.607 13.972C3.607 13.972 4.607 15.712 7.35 15.778C7.35 15.778 7.75 15.245 8.155 14.776C6.615 14.308 6.015 13.372 6.015 13.372C6.015 13.372 6.149 13.438 6.35 13.572H6.41C6.44 13.572 6.454 13.587 6.47 13.602V13.608C6.486 13.624 6.5 13.638 6.53 13.638C6.86 13.774 7.19 13.908 7.46 14.038C7.926 14.24 8.525 14.441 9.26 14.574C10.19 14.709 11.256 14.774 12.47 14.574C13.07 14.439 13.67 14.307 14.27 14.039C14.66 13.839 15.14 13.639 15.667 13.302C15.667 13.302 15.067 14.238 13.462 14.706C13.792 15.172 14.257 15.706 14.257 15.706C17.001 15.646 18.067 13.906 18.127 13.98C18.127 10.11 16.312 6.96 16.312 6.96C14.677 5.746 13.147 5.7 12.877 5.7L12.933 5.68L12.934 5.683ZM13.102 10.096C13.805 10.096 14.372 10.696 14.372 11.431C14.372 12.171 13.802 12.771 13.102 12.771C12.402 12.771 11.832 12.171 11.832 11.437C11.834 10.697 12.405 10.099 13.102 10.099V10.096ZM8.559 10.096C9.259 10.096 9.825 10.696 9.825 11.431C9.825 12.171 9.255 12.771 8.555 12.771C7.855 12.771 7.285 12.171 7.285 11.437C7.285 10.697 7.855 10.099 8.555 10.099L8.559 10.096Z" fill="white"/>
</svg>
