<svg width="21" height="21" viewBox="0 0 21 21" fill="none" xmlns="http://www.w3.org/2000/svg">
<path fill-rule="evenodd" clip-rule="evenodd" d="M10.5 0C4.70156 0 0 4.81875 0 10.7672C0 15.525 3.00937 19.5562 7.18125 20.9813C7.70625 21.0797 7.89844 20.7469 7.89844 20.4609C7.89844 20.2031 7.88906 19.5281 7.88437 18.6281C4.96406 19.2797 4.34531 17.1844 4.34531 17.1844C3.86719 15.9422 3.17813 15.6094 3.17813 15.6094C2.22656 14.9391 3.24844 14.9531 3.24844 14.9531C4.30313 15.0281 4.85625 16.0641 4.85625 16.0641C5.79375 17.7094 7.3125 17.2359 7.9125 16.9594C8.00625 16.2656 8.27812 15.7875 8.57812 15.5203C6.24844 15.2484 3.79688 14.325 3.79688 10.2C3.79688 9.02344 4.20469 8.0625 4.875 7.3125C4.76719 7.04063 4.40625 5.94375 4.97812 4.4625C4.97812 4.4625 5.85938 4.17188 7.86563 5.56406C8.70469 5.325 9.6 5.20781 10.4953 5.20312C11.3859 5.20781 12.2859 5.325 13.125 5.56406C15.1313 4.17188 16.0078 4.4625 16.0078 4.4625C16.5797 5.94375 16.2188 7.04063 16.1109 7.3125C16.7812 8.06719 17.1891 9.02813 17.1891 10.2C17.1891 14.3344 14.7328 15.2437 12.3937 15.5109C12.7687 15.8438 13.1063 16.5 13.1063 17.5031C13.1063 18.9422 13.0922 20.1047 13.0922 20.4562C13.0922 20.7422 13.2797 21.0797 13.8141 20.9719C17.9953 19.5516 21 15.5203 21 10.7672C21 4.81875 16.2984 0 10.5 0Z" fill="white"/>
</svg>
